<mxfile host="Electron" agent="Mozilla/5.0 (X11; Linux x86_64) AppleWebKit/537.36 (KHTML, like Gecko) draw.io/26.0.9 Chrome/128.0.6613.186 Electron/32.3.0 Safari/537.36" version="26.0.9">
  <diagram name="Страница — 1" id="mhqvzQQ7FkAT5g69LFIz">
    <mxGraphModel dx="2022" dy="1865" grid="1" gridSize="10" guides="1" tooltips="1" connect="1" arrows="1" fold="1" page="1" pageScale="1" pageWidth="827" pageHeight="1169" math="0" shadow="0">
      <root>
        <mxCell id="0" />
        <mxCell id="1" parent="0" />
        <mxCell id="LQqoDkcMOgwp-KPweVIU-1" value="Model" style="shape=module;align=left;spacingLeft=20;align=center;verticalAlign=top;whiteSpace=wrap;html=1;" vertex="1" parent="1">
          <mxGeometry x="270" y="120" width="540" height="320" as="geometry" />
        </mxCell>
        <mxCell id="LQqoDkcMOgwp-KPweVIU-2" value="View" style="shape=module;align=left;spacingLeft=20;align=center;verticalAlign=top;whiteSpace=wrap;html=1;" vertex="1" parent="1">
          <mxGeometry x="30" y="480" width="770" height="360" as="geometry" />
        </mxCell>
        <mxCell id="LQqoDkcMOgwp-KPweVIU-3" value="Controller" style="shape=module;align=left;spacingLeft=20;align=center;verticalAlign=top;whiteSpace=wrap;html=1;" vertex="1" parent="1">
          <mxGeometry x="270" y="-280" width="530" height="370" as="geometry" />
        </mxCell>
        <mxCell id="LQqoDkcMOgwp-KPweVIU-4" value="filter.conf" style="label;fontStyle=0;strokeColor=none;fillColor=none;align=left;verticalAlign=top;overflow=hidden;spacingLeft=28;spacingRight=4;rotatable=0;points=[[0,0.5],[1,0.5]];portConstraint=eastwest;imageWidth=16;imageHeight=16;whiteSpace=wrap;html=1;image=img/clipart/Gear_128x128.png" vertex="1" parent="1">
          <mxGeometry x="80" y="-20" width="120" height="26" as="geometry" />
        </mxCell>
        <mxCell id="LQqoDkcMOgwp-KPweVIU-6" value="&lt;b&gt;AbstrFactory&lt;/b&gt;" style="verticalAlign=top;align=left;overflow=fill;html=1;whiteSpace=wrap;" vertex="1" parent="1">
          <mxGeometry x="80" y="90" width="140" height="60" as="geometry" />
        </mxCell>
        <mxCell id="LQqoDkcMOgwp-KPweVIU-7" value="&lt;p style=&quot;margin:0px;margin-top:4px;text-align:center;&quot;&gt;&lt;b&gt;ICGFilter&lt;/b&gt;&lt;/p&gt;" style="verticalAlign=top;align=left;overflow=fill;html=1;whiteSpace=wrap;" vertex="1" parent="1">
          <mxGeometry x="345" y="-30" width="140" height="60" as="geometry" />
        </mxCell>
        <mxCell id="LQqoDkcMOgwp-KPweVIU-10" value="tools" style="shape=module;align=left;spacingLeft=20;align=center;verticalAlign=top;whiteSpace=wrap;html=1;" vertex="1" parent="1">
          <mxGeometry x="340" y="-240" width="430" height="150" as="geometry" />
        </mxCell>
        <mxCell id="LQqoDkcMOgwp-KPweVIU-12" value="«interface»&lt;br&gt;&lt;div&gt;Tool&lt;/div&gt;" style="html=1;whiteSpace=wrap;" vertex="1" parent="1">
          <mxGeometry x="390" y="-200" width="110" height="50" as="geometry" />
        </mxCell>
        <mxCell id="LQqoDkcMOgwp-KPweVIU-13" value="&lt;p style=&quot;margin:0px;margin-top:4px;text-align:center;&quot;&gt;&lt;b&gt;ConcretTool&lt;/b&gt;&lt;/p&gt;" style="verticalAlign=top;align=left;overflow=fill;html=1;whiteSpace=wrap;" vertex="1" parent="1">
          <mxGeometry x="590" y="-205" width="140" height="60" as="geometry" />
        </mxCell>
        <mxCell id="LQqoDkcMOgwp-KPweVIU-14" value="" style="endArrow=block;dashed=1;endFill=0;endSize=12;html=1;rounded=0;entryX=0.021;entryY=0.367;entryDx=0;entryDy=0;entryPerimeter=0;exitX=1;exitY=0.25;exitDx=0;exitDy=0;" edge="1" parent="1" source="LQqoDkcMOgwp-KPweVIU-12" target="LQqoDkcMOgwp-KPweVIU-13">
          <mxGeometry width="160" relative="1" as="geometry">
            <mxPoint x="520" y="-25.5" as="sourcePoint" />
            <mxPoint x="680" y="-25.5" as="targetPoint" />
          </mxGeometry>
        </mxCell>
        <mxCell id="LQqoDkcMOgwp-KPweVIU-15" value="toolsWorker" style="shape=module;align=left;spacingLeft=20;align=center;verticalAlign=top;whiteSpace=wrap;html=1;" vertex="1" parent="1">
          <mxGeometry x="510" y="-80" width="260" height="150" as="geometry" />
        </mxCell>
        <mxCell id="LQqoDkcMOgwp-KPweVIU-17" value="&lt;p style=&quot;margin:0px;margin-top:4px;text-align:center;&quot;&gt;&lt;b&gt;ToolsFactory&lt;/b&gt;&lt;/p&gt;" style="verticalAlign=top;align=left;overflow=fill;html=1;whiteSpace=wrap;" vertex="1" parent="1">
          <mxGeometry x="560" y="-20" width="140" height="60" as="geometry" />
        </mxCell>
        <mxCell id="LQqoDkcMOgwp-KPweVIU-19" value="&lt;p style=&quot;margin:0px;margin-top:4px;text-align:center;&quot;&gt;&lt;b&gt;ImageWorker&lt;/b&gt;&lt;/p&gt;" style="verticalAlign=top;align=left;overflow=fill;html=1;whiteSpace=wrap;" vertex="1" parent="1">
          <mxGeometry x="390" y="210" width="140" height="60" as="geometry" />
        </mxCell>
        <mxCell id="LQqoDkcMOgwp-KPweVIU-20" value="toolsModel" style="shape=module;align=left;spacingLeft=20;align=center;verticalAlign=top;whiteSpace=wrap;html=1;" vertex="1" parent="1">
          <mxGeometry x="560" y="160" width="210" height="200" as="geometry" />
        </mxCell>
        <mxCell id="LQqoDkcMOgwp-KPweVIU-21" value="&lt;p style=&quot;margin:0px;margin-top:4px;text-align:center;&quot;&gt;&lt;b&gt;ToolsFactory&lt;/b&gt;&lt;/p&gt;" style="verticalAlign=top;align=left;overflow=fill;html=1;whiteSpace=wrap;" vertex="1" parent="1">
          <mxGeometry x="610" y="270" width="140" height="60" as="geometry" />
        </mxCell>
        <mxCell id="LQqoDkcMOgwp-KPweVIU-22" value="&lt;p style=&quot;margin:0px;margin-top:4px;text-align:center;&quot;&gt;&lt;b&gt;Prototype&lt;/b&gt;&lt;/p&gt;" style="verticalAlign=top;align=left;overflow=fill;html=1;whiteSpace=wrap;" vertex="1" parent="1">
          <mxGeometry x="610" y="190" width="140" height="60" as="geometry" />
        </mxCell>
        <mxCell id="LQqoDkcMOgwp-KPweVIU-23" value="&lt;p style=&quot;margin:0px;margin-top:4px;text-align:center;&quot;&gt;&lt;b&gt;MainFrame&lt;/b&gt;&lt;/p&gt;" style="verticalAlign=top;align=left;overflow=fill;html=1;whiteSpace=wrap;" vertex="1" parent="1">
          <mxGeometry x="100" y="600" width="140" height="60" as="geometry" />
        </mxCell>
        <mxCell id="LQqoDkcMOgwp-KPweVIU-24" value="components" style="shape=module;align=left;spacingLeft=20;align=center;verticalAlign=top;whiteSpace=wrap;html=1;" vertex="1" parent="1">
          <mxGeometry x="290" y="520" width="490" height="300" as="geometry" />
        </mxCell>
        <mxCell id="LQqoDkcMOgwp-KPweVIU-26" value="&lt;p style=&quot;margin:0px;margin-top:4px;text-align:center;&quot;&gt;&lt;b&gt;FilterPanel&lt;/b&gt;&lt;/p&gt;" style="verticalAlign=top;align=left;overflow=fill;html=1;whiteSpace=wrap;" vertex="1" parent="1">
          <mxGeometry x="330" y="560" width="140" height="60" as="geometry" />
        </mxCell>
        <mxCell id="LQqoDkcMOgwp-KPweVIU-27" value="autogenToolsDialog" style="shape=module;align=left;spacingLeft=20;align=center;verticalAlign=top;whiteSpace=wrap;html=1;" vertex="1" parent="1">
          <mxGeometry x="490" y="550" width="270" height="250" as="geometry" />
        </mxCell>
        <mxCell id="LQqoDkcMOgwp-KPweVIU-28" value="&lt;p style=&quot;margin:0px;margin-top:4px;text-align:center;&quot;&gt;&lt;b&gt;ToolsDialogFactory&lt;/b&gt;&lt;/p&gt;" style="verticalAlign=top;align=left;overflow=fill;html=1;whiteSpace=wrap;" vertex="1" parent="1">
          <mxGeometry x="520" y="580" width="140" height="60" as="geometry" />
        </mxCell>
        <mxCell id="LQqoDkcMOgwp-KPweVIU-29" value="tool1.conf&lt;div&gt;&lt;br&gt;&lt;/div&gt;" style="label;fontStyle=0;strokeColor=none;fillColor=none;align=left;verticalAlign=top;overflow=hidden;spacingLeft=28;spacingRight=4;rotatable=0;points=[[0,0.5],[1,0.5]];portConstraint=eastwest;imageWidth=16;imageHeight=16;whiteSpace=wrap;html=1;image=img/clipart/Gear_128x128.png" vertex="1" parent="1">
          <mxGeometry x="-190" y="-28" width="120" height="26" as="geometry" />
        </mxCell>
        <mxCell id="LQqoDkcMOgwp-KPweVIU-30" value="tool2.conf" style="label;fontStyle=0;strokeColor=none;fillColor=none;align=left;verticalAlign=top;overflow=hidden;spacingLeft=28;spacingRight=4;rotatable=0;points=[[0,0.5],[1,0.5]];portConstraint=eastwest;imageWidth=16;imageHeight=16;whiteSpace=wrap;html=1;image=img/clipart/Gear_128x128.png" vertex="1" parent="1">
          <mxGeometry x="-190" y="30" width="120" height="26" as="geometry" />
        </mxCell>
        <mxCell id="LQqoDkcMOgwp-KPweVIU-31" value="&lt;p style=&quot;margin:0px;margin-top:4px;text-align:center;&quot;&gt;&lt;b&gt;Protoype&lt;/b&gt;&lt;/p&gt;" style="verticalAlign=top;align=left;overflow=fill;html=1;whiteSpace=wrap;" vertex="1" parent="1">
          <mxGeometry x="520" y="680" width="140" height="60" as="geometry" />
        </mxCell>
        <mxCell id="LQqoDkcMOgwp-KPweVIU-32" value="Tools Parameters" style="swimlane;whiteSpace=wrap;html=1;" vertex="1" parent="1">
          <mxGeometry x="-220" y="-80" width="200" height="200" as="geometry" />
        </mxCell>
        <mxCell id="LQqoDkcMOgwp-KPweVIU-34" style="edgeStyle=none;rounded=0;orthogonalLoop=1;jettySize=auto;html=1;" edge="1" parent="1" source="LQqoDkcMOgwp-KPweVIU-33" target="LQqoDkcMOgwp-KPweVIU-29">
          <mxGeometry relative="1" as="geometry" />
        </mxCell>
        <mxCell id="LQqoDkcMOgwp-KPweVIU-33" value="Содержит имя иструмента, путь (Java style) до его котроллера, описание параметоров, которые ему необходимы для работы (тип и как он должен быть представлен в окне настрек (например в виде слайдера))" style="shape=note;whiteSpace=wrap;html=1;backgroundOutline=1;darkOpacity=0.05;" vertex="1" parent="1">
          <mxGeometry x="-560" y="-110" width="290" height="140" as="geometry" />
        </mxCell>
        <mxCell id="LQqoDkcMOgwp-KPweVIU-36" style="edgeStyle=none;rounded=0;orthogonalLoop=1;jettySize=auto;html=1;" edge="1" parent="1" source="LQqoDkcMOgwp-KPweVIU-35" target="LQqoDkcMOgwp-KPweVIU-4">
          <mxGeometry relative="1" as="geometry" />
        </mxCell>
        <mxCell id="LQqoDkcMOgwp-KPweVIU-35" value="Содержит пути для загрузки иструмента в формате имя=путь_к _conf_файлу" style="shape=note;whiteSpace=wrap;html=1;backgroundOutline=1;darkOpacity=0.05;" vertex="1" parent="1">
          <mxGeometry x="90" y="-170" width="160" height="100" as="geometry" />
        </mxCell>
        <mxCell id="LQqoDkcMOgwp-KPweVIU-38" style="edgeStyle=none;rounded=0;orthogonalLoop=1;jettySize=auto;html=1;entryX=0.25;entryY=1;entryDx=0;entryDy=0;" edge="1" parent="1" source="LQqoDkcMOgwp-KPweVIU-37" target="LQqoDkcMOgwp-KPweVIU-6">
          <mxGeometry relative="1" as="geometry" />
        </mxCell>
        <mxCell id="LQqoDkcMOgwp-KPweVIU-37" value="Читает filter.conf и передаёт задачи порождения контроллера иструмента - фабрике контроллеров, модели - фабрике моделей и т.д" style="shape=note;whiteSpace=wrap;html=1;backgroundOutline=1;darkOpacity=0.05;" vertex="1" parent="1">
          <mxGeometry y="200" width="220" height="120" as="geometry" />
        </mxCell>
        <mxCell id="LQqoDkcMOgwp-KPweVIU-41" style="edgeStyle=none;rounded=0;orthogonalLoop=1;jettySize=auto;html=1;entryX=1;entryY=0.25;entryDx=0;entryDy=0;" edge="1" parent="1" source="LQqoDkcMOgwp-KPweVIU-40" target="LQqoDkcMOgwp-KPweVIU-17">
          <mxGeometry relative="1" as="geometry" />
        </mxCell>
        <mxCell id="LQqoDkcMOgwp-KPweVIU-40" value="Загуржает классы инструментов по путям к ним, полученным от AbstrFactory и создаёт их объекты" style="shape=note;whiteSpace=wrap;html=1;backgroundOutline=1;darkOpacity=0.05;" vertex="1" parent="1">
          <mxGeometry x="890" y="-90" width="150" height="136" as="geometry" />
        </mxCell>
        <mxCell id="LQqoDkcMOgwp-KPweVIU-43" value="Создаёт объект-хранилку для каждого интсрумента на основе объекта класса Prototype. Вероятнее всего данные будут храниться в мапе в виде Object, в которой будет также сохранено их имена и типы.&lt;div&gt;Также используется для доступа к данным этих объектов&lt;/div&gt;" style="shape=note;whiteSpace=wrap;html=1;backgroundOutline=1;darkOpacity=0.05;" vertex="1" parent="1">
          <mxGeometry x="900" y="190" width="240" height="190" as="geometry" />
        </mxCell>
        <mxCell id="LQqoDkcMOgwp-KPweVIU-44" style="edgeStyle=none;rounded=0;orthogonalLoop=1;jettySize=auto;html=1;entryX=0;entryY=0.5;entryDx=0;entryDy=0;entryPerimeter=0;" edge="1" parent="1" source="LQqoDkcMOgwp-KPweVIU-21" target="LQqoDkcMOgwp-KPweVIU-43">
          <mxGeometry relative="1" as="geometry" />
        </mxCell>
        <mxCell id="LQqoDkcMOgwp-KPweVIU-46" style="edgeStyle=none;rounded=0;orthogonalLoop=1;jettySize=auto;html=1;entryX=1;entryY=0.5;entryDx=0;entryDy=0;" edge="1" parent="1" source="LQqoDkcMOgwp-KPweVIU-45" target="LQqoDkcMOgwp-KPweVIU-28">
          <mxGeometry relative="1" as="geometry" />
        </mxCell>
        <mxCell id="LQqoDkcMOgwp-KPweVIU-45" value="По полученнеым от AbstrFactory данным создаёт диалоговые панели (по аналогии с toolsModel.ToolsFactory) для инструментов, вызываемые при нажатии на кнопку.&lt;div&gt;Также служит для доступа к этим окнам.&lt;/div&gt;" style="shape=note;whiteSpace=wrap;html=1;backgroundOutline=1;darkOpacity=0.05;" vertex="1" parent="1">
          <mxGeometry x="850" y="550" width="220" height="200" as="geometry" />
        </mxCell>
      </root>
    </mxGraphModel>
  </diagram>
</mxfile>
